# xmcd
#
# Track frame offsets: 
#        150
#        15305
#        28382
#        42552
#        58052
#        71345
#        82960
#        96915
#        114462
#        127307
#        139855
#        154982
#        172405
#        187715
#        203405
#        218022
#        233705
#
# Disc length: 3343 seconds
#
# Revision: 3
# Processed by: cddbd v1.5.2PL0 Copyright (c) Steve Scherf et al.
# Submitted via: ExactAudioCopyFreeDBPlugin 1.0
#
DISCID=ef0d0d11
DTITLE=Various Artist - KICKIN COUNTRY
DYEAR=1993
DGENRE=Country
TTITLE0=Mary-Chapin Carpenter - Down At The Twist and Shout
TTITLE1=Vince Gill - Liza Jane
TTITLE2=Shenandoah - Rock My Baby
TTITLE3=Ricky Van Shelton - I Am A Simple Man
TTITLE4=Hal Ketchum - Small Town Saturday Night
TTITLE5=Steve Earle - Guitar Town
TTITLE6=Patty Loveless - I'm That Kind Of Girl
TTITLE7=Ricky Skaggs - Life's Too Long (To Live Like This)
TTITLE8=The Kentucky Headhunters - Dumas Walker
TTITLE9=Aaron Tippin - There Ain't Nothin Wrong With The Radio
TTITLE10=Sawyer Brown - Betty's Bein Bad
TTITLE11=Tanya Tucker - Some Kind Of Trouble
TTITLE12=Charles Daniels - Honky Tonk Life
TTITLE13=Doug Stone - A Jukebox With A Country Song
TTITLE14=Rosanne Cash - My Baby Thinks He's A Train
TTITLE15=Joe Diffie - Next Thing Smokin'
TTITLE16=Rodney Crowell - Lovin' All Night
EXTD=
EXTT0=Mary-Chapin Carpentar
EXTT1=Vince Gill
EXTT2=Shenandoah
EXTT3=Ricky Van Shelton
EXTT4=Hal Ketchum
EXTT5=Steve Earle
EXTT6=Patty Loveless
EXTT7=Ricky Skaggs
EXTT8=The Kentucky Headhunters
EXTT9=Aaron Tippin
EXTT10=Sawyer Brown
EXTT11=Tanya Tucker
EXTT12=Charlie Daniels
EXTT13=Doug Stone
EXTT14=Rosanne Cash
EXTT15=Joe Diffie
EXTT16=Rodney Crowell
PLAYORDER=
